<?xml version="1.0" encoding="UTF-8" standalone="no"?><!DOCTYPE svg PUBLIC "-//W3C//DTD SVG 1.1//EN" "http://www.w3.org/Graphics/SVG/1.1/DTD/svg11.dtd"><svg width="100%" height="100%" viewBox="0 0 97 94" version="1.1" xmlns="http://www.w3.org/2000/svg" xmlns:xlink="http://www.w3.org/1999/xlink" xml:space="preserve" xmlns:serif="http://www.serif.com/" style="fill-rule:evenodd;clip-rule:evenodd;stroke-linejoin:round;stroke-miterlimit:1.41421;"><path d="M22.043,86.731c0.818,1.415 2.888,2.612 4.523,2.612l42.866,0c1.635,0 3.704,-1.196 4.522,-2.611l21.434,-37.122c0.817,-1.415 0.817,-3.805 0,-5.22l-21.434,-37.122c-0.817,-1.415 -2.887,-2.611 -4.522,-2.611l-42.866,0c-1.635,0 -3.704,1.197 -4.523,2.612l-21.43,37.12c-0.817,1.415 -0.817,3.805 0,5.22l21.43,37.122Zm11.075,-40.612l14.001,0l0,-14.001l1.761,0l0,14.001l14.001,0l0,1.761l-14.001,0l0,14.001l-1.761,0l0,-14.001l-14.001,0l0,-1.761Z" style="fill-rule:nonzero;"/></svg>