<?xml version="1.0" encoding="UTF-8" standalone="no"?><!DOCTYPE svg PUBLIC "-//W3C//DTD SVG 1.1//EN" "http://www.w3.org/Graphics/SVG/1.1/DTD/svg11.dtd"><svg width="100%" height="100%" viewBox="0 0 49 48" version="1.1" xmlns="http://www.w3.org/2000/svg" xmlns:xlink="http://www.w3.org/1999/xlink" xml:space="preserve" xmlns:serif="http://www.serif.com/" style="fill-rule:evenodd;clip-rule:evenodd;stroke-linejoin:round;stroke-miterlimit:1.41421;"><g><path d="M31.998,16.024c-0.28,-0.283 -0.662,-0.442 -1.06,-0.442c-0.398,0 -0.78,0.159 -1.06,0.442l-5.88,5.85l-5.86,-5.85c-0.28,-0.283 -0.662,-0.442 -1.06,-0.442c-0.398,0 -0.78,0.159 -1.06,0.442c-0.575,0.585 -0.575,1.536 0,2.12l5.86,5.85l-5.86,5.85c-0.575,0.585 -0.575,1.536 0,2.12c0.28,0.284 0.662,0.442 1.06,0.44c0.399,0.006 0.783,-0.153 1.06,-0.44l5.86,-5.85l5.85,5.85c0.582,0.581 1.539,0.581 2.12,0c0.284,-0.279 0.443,-0.661 0.443,-1.06c0,-0.398 -0.159,-0.78 -0.443,-1.06l-5.85,-5.85l5.88,-5.85c0.284,-0.279 0.443,-0.661 0.443,-1.06c0,-0.398 -0.159,-0.78 -0.443,-1.06Z" style="fill-rule:nonzero;"/><path d="M47.548,13.764c-0.6,-4.56 -2.21,-7.77 -4.78,-9.55c-3.19,-2.2 -6.88,-2.64 -10.13,-3.04l-0.64,-0.08c-6.751,-0.868 -13.599,-0.645 -20.28,0.66c-1.6,0.272 -3.164,0.728 -4.66,1.36c-1.805,0.755 -3.355,2.016 -4.46,3.63c-1.68,2.52 -2.04,5.77 -2.24,8.62c-0.2,2.85 -0.42,6.54 -0.36,10.21c0,1.37 0.07,3 0.18,4.55c0.21,3.06 0.67,7 2.38,10.23c2.34,4.46 6.29,5.52 9.05,5.92c3.969,0.663 7.978,1.047 12,1.15l0.26,0c4.029,-0.043 8.046,-0.455 12,-1.23c3.13,-0.62 6.36,-1.45 8.63,-3.95c2.5,-2.67 2.91,-6.67 3.16,-10.47c0.557,-5.992 0.52,-12.025 -0.11,-18.01Zm-2.88,17.81c-0.22,3.29 -0.59,6.67 -2.39,8.65c-1.8,1.98 -4.51,2.57 -7,3c-3.859,0.748 -7.779,1.143 -11.71,1.18c-3.871,-0.098 -7.731,-0.473 -11.55,-1.12c-3.46,-0.5 -5.5,-1.81 -6.84,-4.35c-1.45,-2.75 -1.85,-6.27 -2,-9c-0.1,-1.53 -0.14,-3.08 -0.17,-4.42c-0.08,-3.54 0.12,-7 0.33,-9.92c0.18,-2.46 0.47,-5.25 1.74,-7.17c0.797,-1.146 1.909,-2.039 3.2,-2.57c1.283,-0.54 2.626,-0.926 4,-1.15c3.826,-0.742 7.713,-1.12 11.61,-1.13c2.582,0.003 5.16,0.17 7.72,0.5l0.67,0.08c3,0.37 6.21,0.75 8.78,2.53c1.85,1.28 3,3.79 3.51,7.47c0.602,5.79 0.636,11.624 0.1,17.42Z" style="fill-rule:nonzero;"/></g></svg>