<?xml version="1.0" encoding="UTF-8" standalone="no"?><!DOCTYPE svg PUBLIC "-//W3C//DTD SVG 1.1//EN" "http://www.w3.org/Graphics/SVG/1.1/DTD/svg11.dtd"><svg width="100%" height="100%" viewBox="0 0 32 32" version="1.1" xmlns="http://www.w3.org/2000/svg" xmlns:xlink="http://www.w3.org/1999/xlink" xml:space="preserve" xmlns:serif="http://www.serif.com/" style="fill-rule:evenodd;clip-rule:evenodd;stroke-linecap:round;stroke-linejoin:round;stroke-miterlimit:1.5;"><g><path d="M8.423,24.421c-0.224,0.001 -0.439,-0.087 -0.598,-0.245c-0.159,-0.158 -0.249,-0.373 -0.249,-0.597c0,-0.225 0.09,-0.44 0.249,-0.598l15.154,-15.154c0.159,-0.159 0.374,-0.248 0.598,-0.248c0.464,0 0.845,0.382 0.845,0.846c0,0.224 -0.089,0.439 -0.247,0.597l-15.154,15.154c-0.159,0.158 -0.374,0.246 -0.598,0.245Z" style="fill-rule:nonzero;"/><path d="M23.577,24.421c-0.224,0.001 -0.439,-0.087 -0.598,-0.245l-15.154,-15.154c-0.158,-0.158 -0.247,-0.373 -0.247,-0.597c0,-0.464 0.381,-0.846 0.845,-0.846c0.224,0 0.439,0.089 0.598,0.248l15.154,15.154c0.159,0.158 0.249,0.373 0.249,0.598c0,0.224 -0.09,0.439 -0.249,0.597c-0.159,0.158 -0.374,0.246 -0.598,0.245Z" style="fill-rule:nonzero;"/><path d="M29.989,3.304c0,-0.714 -0.579,-1.293 -1.293,-1.293l-25.392,0c-0.714,0 -1.293,0.579 -1.293,1.293l0,25.392c0,0.714 0.579,1.293 1.293,1.293l25.392,0c0.714,0 1.293,-0.579 1.293,-1.293l0,-25.392Z" style="fill:none;stroke:#000;stroke-width:1.75px;"/></g></svg>