<?xml version="1.0" encoding="UTF-8" standalone="no"?><!DOCTYPE svg PUBLIC "-//W3C//DTD SVG 1.1//EN" "http://www.w3.org/Graphics/SVG/1.1/DTD/svg11.dtd"><svg width="100%" height="100%" viewBox="0 0 94 94" version="1.1" xmlns="http://www.w3.org/2000/svg" xmlns:xlink="http://www.w3.org/1999/xlink" xml:space="preserve" xmlns:serif="http://www.serif.com/" style="fill-rule:evenodd;clip-rule:evenodd;stroke-linejoin:round;stroke-miterlimit:1.41421;"><path d="M82.75,1.95l-71.6,0c-5.1,0 -9.2,4.1 -9.2,9.2l0,71.7c0,5.1 4.1,9.2 9.2,9.2l71.7,0c5.1,0 9.2,-4.1 9.2,-9.2l0,-71.7c-0.1,-5.1 -4.2,-9.2 -9.3,-9.2Zm5.2,80.8c0,2.8 -2.3,5.2 -5.2,5.2l-71.6,0c-2.9,0 -5.2,-2.3 -5.2,-5.2l0,-71.6c0,-2.9 2.3,-5.2 5.2,-5.2l71.7,0c2.8,0 5.2,2.3 5.2,5.2l0,71.6l-0.1,0Zm-23.6,-53.2c-0.8,-0.8 -2,-0.8 -2.8,0l-14.6,14.6l-14.6,-14.6c-0.8,-0.8 -2,-0.8 -2.8,0c-0.8,0.8 -0.8,2 0,2.8l14.6,14.6l-14.6,14.6c-0.8,0.8 -0.8,2 0,2.8c0.4,0.4 0.9,0.6 1.4,0.6c0.5,0 1,-0.2 1.4,-0.6l14.6,-14.6l14.6,14.6c0.4,0.4 0.9,0.6 1.4,0.6c0.5,0 1,-0.2 1.4,-0.6c0.8,-0.8 0.8,-2 0,-2.8l-14.6,-14.6l14.6,-14.6c0.8,-0.8 0.8,-2.1 0,-2.8Z" style="fill-rule:nonzero;"/></svg>