<?xml version="1.0" encoding="UTF-8" standalone="no"?><!DOCTYPE svg PUBLIC "-//W3C//DTD SVG 1.1//EN" "http://www.w3.org/Graphics/SVG/1.1/DTD/svg11.dtd"><svg width="100%" height="100%" viewBox="0 0 32 32" version="1.1" xmlns="http://www.w3.org/2000/svg" xmlns:xlink="http://www.w3.org/1999/xlink" xml:space="preserve" xmlns:serif="http://www.serif.com/" style="fill-rule:evenodd;clip-rule:evenodd;stroke-linejoin:round;stroke-miterlimit:1.41421;"><g><path d="M27,30l-22,0c-1.646,0 -3,-1.354 -3,-3l0,-22c0,-1.646 1.354,-3 3,-3l14,0c0.549,0 1,0.451 1,1c0,0.549 -0.451,1 -1,1l-14,0c-0.549,0 -1,0.451 -1,1l0,22c0,0.549 0.451,1 1,1l22,0c0.549,0 1,-0.451 1,-1l0,-14c0,-0.549 0.451,-1 1,-1c0.549,0 1,0.451 1,1l0,14c0,1.646 -1.354,3 -3,3Z" style="fill-rule:nonzero;"/><path d="M10,23c-0.266,0.002 -0.521,-0.103 -0.71,-0.29c-0.244,-0.234 -0.354,-0.577 -0.29,-0.91l1.1,-5.34c0.038,-0.193 0.132,-0.37 0.27,-0.51l13.46,-13.44c0.75,-0.75 1.769,-1.172 2.83,-1.172c2.196,0 4.002,1.806 4.002,4.002c0,1.061 -0.422,2.08 -1.172,2.83l-13.44,13.44c-0.141,0.136 -0.318,0.229 -0.51,0.27l-5.34,1.12l-0.2,0Zm2,-5.85l-0.73,3.56l3.58,-0.71l13.22,-13.24c0.375,-0.375 0.586,-0.884 0.586,-1.415c0,-1.098 -0.903,-2.001 -2.001,-2.001c-0.531,0 -1.04,0.211 -1.415,0.586l-13.24,13.22Z" style="fill-rule:nonzero;"/></g></svg>